<?xml version="1.0" encoding="iso-8859-1"?>
<svg width="2.4rem" height="2.4rem" viewBox="0 0 24 24" version="1.1" xmlns="http://www.w3.org/2000/svg" xmlns:xlink="http://www.w3.org/1999/xlink" data-tid="389f414"><path fill-rule="evenodd" clip-rule="evenodd" d="M2.88388 2.1166C2.39573 1.62845 1.60427 1.62845 1.11612 2.1166C0.627961 2.60476 0.627961 3.39622 1.11612 3.88437L5.44927 8.21752L5.31849 8.33674H2.20434L2.06389 8.34483C1.46493 8.41434 1 8.92288 1 9.53992V14.3526L1.0081 14.493C1.07767 15.0913 1.58672 15.5559 2.20434 15.5559H5.81735L11.0167 20.7502L11.0902 20.8111C11.3969 21.019 11.839 20.8057 11.839 20.4098V14.6073L19.1161 21.8844C19.6043 22.3725 20.3957 22.3725 20.8839 21.8844C21.372 21.3962 21.372 20.6048 20.8839 20.1166L2.88388 2.1166ZM15.7506 11.9833L17.957 14.1897C18.1484 13.4925 18.2506 12.7584 18.2506 12.0004C18.2506 9.93657 17.4928 8.0497 16.2402 6.60295L14.3587 8.24928C15.2227 9.2522 15.7464 10.5566 15.7506 11.9833ZM19.9192 16.1519L21.8004 18.0331C22.7272 16.2237 23.2501 14.1732 23.2501 12.0005C23.2501 8.67571 22.0256 5.63693 20.0028 3.31061L18.1213 4.95691C19.759 6.84344 20.7501 9.30622 20.7501 12.0005C20.7501 13.4721 20.4544 14.8746 19.9192 16.1519ZM8.86821 5.10093L11.839 8.07176V3.48273C11.839 3.05396 11.3202 2.83923 11.0167 3.14242L8.86821 5.10093Z" fill="white"></path></svg>
