<svg width="2.4rem" height="2.4rem" viewBox="0 0 24 24" version="1.1" xmlns="http://www.w3.org/2000/svg" xmlns:xlink="http://www.w3.org/1999/xlink" data-tid="ae686694"><path fill-rule="evenodd" clip-rule="evenodd" d="M11.839 20.4098V3.48273C11.839 3.05396 11.3202 2.83923 11.0167 3.14242L5.31849 8.33674H2.20434L2.06389 8.34483C1.46493 8.41434 1 8.92288 1 9.53992V14.3526L1.0081 14.493C1.07767 15.0913 1.58672 15.5559 2.20434 15.5559H5.81735L11.0167 20.7502L11.0902 20.8111C11.3969 21.019 11.839 20.8057 11.839 20.4098ZM19.7139 21.0119L17.79 19.4087C19.6243 17.4805 20.7501 14.872 20.7501 12.0005C20.7501 9.30622 19.759 6.84344 18.1213 4.95691L20.0028 3.31061C22.0256 5.63693 23.2501 8.67571 23.2501 12.0005C23.2501 15.4807 21.9084 18.6476 19.7139 21.0119ZM18.2506 12.0004C18.2506 14.2633 17.3396 16.3134 15.8643 17.8039L13.9336 16.195C15.052 15.146 15.7506 13.6548 15.7506 12.0004C15.7506 10.5671 15.2262 9.25621 14.3587 8.24928L16.2402 6.60295C17.4928 8.0497 18.2506 9.93657 18.2506 12.0004Z" fill="white"></path></svg>
